<svg version="1.1" id="Layer_1" xmlns="http://www.w3.org/2000/svg" xmlns:xlink="http://www.w3.org/1999/xlink" x="0px" y="0px"
	 width="960px" height="560px" viewBox="0 0 960 560" enable-background="new 0 0 960 560" xml:space="preserve">
<path fill="none" d="M229.784,274.274c-12.057,0-16.323,11.238-16.323,28.722c0,16.236,3.524,29.141,16.323,29.141
	c12.057,0,16.324-11.447,16.324-29.141C246.107,286.762,242.396,274.274,229.784,274.274z"/>
<path fill="none" d="M653.041,278.436c-6.305,0-11.687,3.538-16.508,7.911v5.45l24.855,1.261v-2.55
	C661.389,282.807,659.162,278.436,653.041,278.436z"/>
<path d="M32.062,242.635v4.164H15.925v29.555h16.137v82.008h36.727v-82.008h21.516v-29.555H68.789v-2.498
	c0-11.863,6.492-12.28,12.984-12.28c3.154,0,7.977,0.625,9.644,1.249v-28.099c-1.854-0.624-15.208-1.874-22.443-1.874
	C35.214,203.298,32.062,224.112,32.062,242.635z"/>
<path d="M140.198,264.075h-0.186v-17.275h-36.727v111.563h36.727v-67.854c4.821-4.369,11.871-10.198,22.258-10.198
	c2.596,0,7.789,0.624,9.272,0.832v-36.424h-0.37C152.995,244.718,144.463,256.373,140.198,264.075z"/>
<path d="M229.784,244.718c-24.112,0-53.047,11.655-53.047,58.071c0,45.788,29.121,57.862,53.047,57.862
	c23.927,0,53.049-12.074,53.049-57.862C282.833,256.373,253.711,244.718,229.784,244.718z M229.784,332.137
	c-12.799,0-16.323-12.904-16.323-29.141c0-17.483,4.267-28.722,16.323-28.722c12.612,0,16.324,12.487,16.324,28.722
	C246.107,320.689,241.841,332.137,229.784,332.137z"/>
<path d="M367.409,244.718c-18.364,0-28.75,11.655-33.016,19.357v-17.275h-36.727v111.563h36.727v-72.016
	c4.823-4.373,10.201-7.911,16.507-7.911c6.121,0,8.347,4.371,8.347,12.072v67.854h36.727v-81.383
	C395.974,253.044,382.989,244.718,367.409,244.718z"/>
<path d="M459.959,315.692v-39.338h25.411v-29.555h-25.411v-37.465h-36.725v37.465h-16.138v29.555h16.138v48.496
	c0,21.646,3.154,34.969,36.913,34.969c7.233,0,20.589-1.25,22.443-1.875v-28.723c-1.67,0.625-6.493,1.248-9.646,1.248
	C462.558,330.47,459.959,327.558,459.959,315.692z"/>
<path d="M530.067,278.644c0-4.995,4.083-7.076,10.202-7.076c7.977,0,18.548,4.162,29.309,11.238l13.54-22.686
	c-12.057-9.783-24.671-15.403-46.372-15.403c-22.444,0-40.622,12.696-40.622,37.672c0,0.786,0.025,1.546,0.062,2.295l49.033,2.484
	C535.243,285.714,530.067,283.839,530.067,278.644z"/>
<path d="M556.489,318.398c10.761,1.666,15.398,3.538,15.398,9.367c0,5.202-5.567,7.283-11.871,7.283
	c-11.317,0-26.34-5.202-35.614-13.526l-13.541,23.102c10.943,8.951,26.153,16.027,49.34,16.027c23,0,45.629-10.2,45.629-39.754
	c0-7.678-1.942-13.509-5.109-17.984l-81.575-4.135C526.376,313.24,543.512,316.317,556.489,318.398z"/>
<polygon points="680.947,358.362 717.673,358.362 717.673,308.841 680.947,306.979 "/>
<polygon points="619.366,358.362 656.093,358.362 656.093,305.72 619.366,303.857 "/>
<path d="M636.533,286.347c4.821-4.373,10.203-7.911,16.508-7.911c6.121,0,8.348,4.371,8.348,12.072v2.55l36.727,1.862v-17.94
	c0-23.936-12.985-32.262-28.566-32.262c-18.363,0-28.749,11.655-33.016,19.357v-59.736h-36.727v85.599l36.727,1.859V286.347z"/>
<polygon points="737.7,358.362 774.429,358.362 774.429,311.718 737.7,309.854 "/>
<polygon points="754.868,246.799 718.142,246.799 718.142,295.934 754.868,297.797 "/>
<rect x="718.142" y="204.339" width="36.727" height="31.636"/>
<path d="M822.01,276.354h21.518v-29.555H822.01v-2.498c0-11.863,6.494-12.28,12.985-12.28c3.154,0,7.975,0.625,9.645,1.249v-28.099
	c-1.854-0.624-15.208-1.874-22.443-1.874c-33.758,0-36.913,20.814-36.913,39.337v4.164h-16.136v29.555h16.136v22.984l36.727,1.859
	V276.354z"/>
<polygon points="804.844,358.362 841.57,358.362 841.57,315.119 804.844,313.26 "/>
<path d="M884.414,324.851c0,21.646,3.151,34.969,36.911,34.969c7.233,0,20.589-1.25,22.443-1.875v-28.723
	c-1.668,0.625-6.492,1.248-9.646,1.248c-9.283,0-12.338-2.347-12.884-11.312l-36.825-1.867V324.851z"/>
<polygon points="901.579,276.354 926.991,276.354 926.991,246.799 901.579,246.799 901.579,209.334 864.854,209.334
	864.854,246.799 848.717,246.799 848.717,276.354 864.854,276.354 864.854,303.37 901.579,305.232 "/>
</svg>
