<?xml version="1.0" encoding="UTF-8"?><!DOCTYPE svg PUBLIC "-//W3C//DTD SVG 1.1//EN" "http://www.w3.org/Graphics/SVG/1.1/DTD/svg11.dtd"><svg xmlns="http://www.w3.org/2000/svg"><symbol id="facebook" viewBox="0 0 32 32"><path d="M26.667 0H5.333A5.334 5.334 0 0 0 0 5.334v21.332A5.333 5.333 0 0 0 5.333 32H16V18h-4v-4h4v-3c0-2.76 2.24-5 5-5h5v4h-5a1 1 0 0 0-1 1v3h5.5l-1 4H20v14h6.667A5.334 5.334 0 0 0 32 26.666V5.334A5.333 5.333 0 0 0 26.667 0z"/></symbol><symbol id="frontshift" viewBox="0 0 595.28 841.89"><path fill="none" d="M167.345 381.168c-6.164 0-8.346 5.746-8.346 14.685 0 8.3 1.8 14.898 8.345 14.898 6.164 0 8.346-5.852 8.346-14.897 0-8.3-1.897-14.685-8.345-14.685zM383.743 383.296c-3.224 0-5.975 1.81-8.44 4.044v2.787l12.708.645v-1.304c0-3.937-1.137-6.172-4.267-6.172z"/><path fill="#010101" d="M81.255 364.992v2.13h-8.25v15.11h8.25v41.927h18.777v-41.93h11v-15.11h-11v-1.276c0-6.065 3.32-6.278 6.64-6.278 1.61 0 4.077.32 4.93.64v-14.367c-.948-.32-7.775-.96-11.475-.96-17.26 0-18.872 10.642-18.872 20.112zM133.542 375.953h-.095v-8.832H114.67v57.04h18.777v-34.692c2.465-2.234 6.07-5.214 11.38-5.214 1.327 0 3.982.32 4.74.426v-18.623h-.188c-9.295 0-13.657 5.96-15.838 9.896z"/><path fill="#010101" d="M176.345 366.057c-12.328 0-27.122 5.96-27.122 29.69 0 23.41 14.89 29.584 27.122 29.584s27.122-6.172 27.122-29.583c0-23.73-14.89-29.69-27.122-29.69zm0 44.694c-6.544 0-8.346-6.597-8.346-14.897 0-8.938 2.18-14.685 8.345-14.685 6.448 0 8.346 6.385 8.346 14.685 0 9.046-2.18 14.898-8.345 14.898zM243.708 366.057c-9.39 0-14.7 5.96-16.88 9.897v-8.832H208.05v57.038h18.778v-36.82c2.466-2.235 5.216-4.044 8.44-4.044 3.13 0 4.267 2.234 4.267 6.172v34.69h18.777v-41.607c0-12.236-6.638-16.493-14.604-16.493zM288.026 402.344v-20.112h12.992v-15.11h-12.992v-19.155H269.25v19.155H261v15.11h8.25v24.795c0 11.067 1.612 17.878 18.872 17.878 3.698 0 10.526-.64 11.475-.958V409.26c-.854.32-3.32.64-4.932.64-5.31 0-6.64-1.49-6.64-7.556zM320.87 383.403c0-2.554 2.088-3.618 5.217-3.618 4.078 0 9.483 2.128 14.984 5.746l6.924-11.598c-6.164-5.002-12.613-7.875-23.71-7.875-11.474 0-20.768 6.49-20.768 19.26 0 .402.013.79.03 1.174l25.07 1.27c-5.1-.743-7.745-1.702-7.745-4.357zM334.38 403.728c5.5.852 7.872 1.81 7.872 4.79 0 2.66-2.846 3.723-6.07 3.723-5.784 0-13.466-2.66-18.207-6.915l-6.923 11.81c5.595 4.577 13.37 8.195 25.226 8.195 11.76 0 23.33-5.215 23.33-20.325 0-3.925-.995-6.906-2.614-9.194l-41.707-2.113c3.696 7.393 12.457 8.966 19.093 10.03zM398.01 424.16h18.778v-25.32l-18.777-.95zM366.526 424.16h18.778v-26.915l-18.778-.952zM375.304 387.34c2.465-2.235 5.216-4.044 8.44-4.044 3.13 0 4.267 2.234 4.267 6.172v1.304l18.778.952v-9.173c0-12.236-6.64-16.493-14.605-16.493-9.39 0-14.7 5.96-16.88 9.897v-30.54h-18.777v43.763l18.777.95v-2.787zM427.027 424.16h18.778V400.31l-18.778-.952zM435.805 367.12h-18.778v25.122l18.778.953zM417.027 345.412h18.777v16.175h-18.777zM470.133 382.232h11v-15.11h-11v-1.277c0-6.065 3.32-6.278 6.64-6.278 1.61 0 4.076.32 4.93.64V345.84c-.948-.32-7.775-.958-11.475-.958-17.26 0-18.872 10.642-18.872 20.112v2.13h-8.25v15.11h8.25v11.75l18.777.95v-12.702zM461.355 424.16h18.778v-22.11l-18.778-.95zM502.037 407.027c0 11.067 1.612 17.878 18.872 17.878 3.697 0 10.525-.64 11.474-.958V409.26c-.854.32-3.32.64-4.932.64-4.746 0-6.308-1.2-6.587-5.784l-18.828-.954v3.865zM510.813 382.232h12.993v-15.11h-12.993v-19.156h-18.776v19.155h-8.25v15.112h8.25v13.812l18.776.952z"/><path fill="#FFF" d="M537.275 398.337l-26.462-1.34v5.347c0 .645.02 1.227.052 1.772l26.05 1.32.36-7.1zM470.133 394.934v7.117l21.904 1.11v-7.116zM435.805 393.195v7.117l15.55.788v-7.117zM406.788 391.724v7.117l10.24.52v-7.118zM375.304 390.127v7.118l12.707.644v-7.118zM328.618 387.76l.03.006c6.18.914 14.258 2.268 18.345 8.045l9.533.483v-7.117l-27.908-1.415zM291.636 385.887l-.36 7.1 14.01.71c-.98-1.96-1.604-4.327-1.737-7.206l-11.914-.603z"/></symbol><symbol id="instagram" viewBox="0 0 113.386 113.386"><path d="M100.136 47.884h-9.854c.718 2.787 1.142 5.7 1.142 8.71 0 19.238-15.592 34.83-34.827 34.83-19.234 0-34.827-15.592-34.827-34.83 0-3.01.426-5.923 1.144-8.71H13.06v47.893c0 2.4 1.95 4.35 4.357 4.35h78.36c2.41 0 4.36-1.948 4.36-4.35V47.884zm0-30.473a4.355 4.355 0 0 0-4.358-4.35H82.72a4.354 4.354 0 0 0-4.354 4.352v13.064a4.353 4.353 0 0 0 4.354 4.353h13.058a4.355 4.355 0 0 0 4.358-4.354V17.41zM56.596 34.83c-12.023 0-21.768 9.744-21.768 21.767 0 12.02 9.745 21.77 21.768 21.77s21.77-9.75 21.77-21.77c0-12.023-9.747-21.767-21.77-21.767m43.54 78.365H13.058c-7.21 0-13.058-5.85-13.058-13.066v-87.07C0 5.848 5.847 0 13.058 0h87.078c7.212 0 13.058 5.846 13.058 13.058v87.068c0 7.217-5.846 13.066-13.058 13.066"/></symbol><symbol id="twitter" viewBox="0 0 32 32"><path d="M32 6.076a13.142 13.142 0 0 1-3.77 1.034 6.598 6.598 0 0 0 2.886-3.632c-1.27.752-2.674 1.3-4.17 1.593A6.55 6.55 0 0 0 22.156 3a6.566 6.566 0 0 0-6.565 6.565c0 .515.06 1.016.17 1.496A18.65 18.65 0 0 1 2.23 4.2a6.564 6.564 0 0 0 2.032 8.765 6.563 6.563 0 0 1-2.975-.82v.083a6.568 6.568 0 0 0 5.265 6.437 6.566 6.566 0 0 1-2.964.112 6.574 6.574 0 0 0 6.133 4.56A13.186 13.186 0 0 1 0 26.054a18.573 18.573 0 0 0 10.063 2.95c12.076 0 18.68-10.004 18.68-18.68 0-.285-.007-.568-.02-.85A13.298 13.298 0 0 0 32 6.077z"/></symbol><symbol id="viget" viewBox="0 0 500 181.079"><path d="M77.144 90.693c0 21.3-17.264 38.58-38.563 38.58-21.313 0-38.58-17.28-38.58-38.58 0-21.32 17.267-38.59 38.58-38.59 21.3 0 38.565 17.272 38.565 38.59"/><path fill="currentColor" d="M114.678 48.59c0 11.165-9.037 20.196-20.187 20.196-11.14 0-20.18-9.032-20.18-20.196 0-11.15 9.04-20.2 20.18-20.2 11.15 0 20.19 9.05 20.19 20.2"/><path fill="#092f40" d="M246.277 52.125h-6.374c-1.774 0-3.372 1.595-3.372 3.376v70.323c0 1.774 1.6 3.372 3.374 3.372h6.374c1.776 0 3.376-1.598 3.376-3.372v-70.32c0-1.78-1.6-3.377-3.376-3.377zm133.89-.027c-22.028.242-36.653 17.99-36.653 38.656 0 21.167 17.158 38.662 39.438 38.662 12.705 0 22.486-5.974 26.23-10.188 1.75-1.97 1.186-3.162-.363-4.58-1.355-1.254-2.84-2.734-4.186-3.982-1.24-1.145-2.19-1.094-3.824.128-4.725 3.513-10.628 6.03-18.36 6.03-14.712 0-25.344-10.604-26.08-22.942h53.894c1.65 0 3.13-1.294 3.31-3.128.19-1.29.373-3.682.373-4.976 0-19.167-14.683-33.44-33.78-33.68zM356.66 83.573c.732-10.458 9.916-20.25 22.242-20.25 11.237 0 21.79 9.57 22.333 20.25H356.66zm23.02-31.486c.164 0 .325.01.488.01.15 0 .3-.01.452-.01h-.94zm90.487 68.17l-5.318-5.273c-.41-.415-1.734-.892-3.09.277 0 0-2.718 2.503-7.33 2.503-3.183 0-5.77-1.157-7.665-3.113-1.877-1.965-3.07-4.792-3.126-8.317a1.898 1.898 0 0 0-.095-.554V62.722h19.466c1.958 0 3.373-1.595 3.373-3.376v-3.9c0-1.958-1.415-3.375-3.372-3.375h-19.465V32.467c0-1.776-1.417-3.374-3.197-3.374l-5.674.61c-1.773.236-3.376 1.6-3.376 3.374v18.996h-9.234c-1.952 0-3.37 1.417-3.37 3.376v3.897c0 1.78 1.418 3.376 3.37 3.376h9.234v44.21h.08c.146 5.426 2.178 9.578 3.41 11.628 1.112 1.757 3.522 5.18 7.38 7.917v.005a4.3 4.3 0 0 0 .198.13c1.795 1.053 5.773 2.82 11.94 2.814h.043c6.41 0 11.86-2.356 15.78-6.118.41-.394.65-.948.66-1.52a2.158 2.158 0 0 0-.624-1.534zM220.422 52.18h-6.92l-.814.016c-1.547 0-2.58.918-3.09 1.954L185.4 111.546l-23.775-57.53c-.513-1.036-1.544-1.954-3.09-1.954l-.816-.015h-7.11c-2.667 0-3.73 1.778-2.667 4.084l1.267 2.903 28.99 66.736c.642 1.55 1.902 3.37 3.67 3.37h7.064c1.77 0 3.03-1.82 3.677-3.37l29.21-66.6 1.267-2.903c1.066-2.307 0-4.085-2.664-4.085zm90.392 77.248h-25.816c-6.63 0-9.856-4.634-9.856-9.116 0-7.174 7.887-10.76 7.887-10.76s8.437 5.21 18.29 5.21c18.956 0 31.82-14.885 31.82-31.202 0-12.198-7.377-19.292-7.377-19.292l9.754-2.77c1.244-.18 1.97-1.792 1.97-3.05V55.41c0-1.965-1.433-3.404-3.406-3.404h-34.025c-18.642 0-30.298 14.883-30.298 31.553 0 10.577 5.74 17.93 5.74 17.93s-12.01 6.98-12.01 20.607c0 11.118 8.424 15.78 13.087 17.034v.54c-1.8 1.07-10.396 5.915-10.396 16.67 0 11.833 10.395 24.735 34.415 24.735 21.69 0 37.105-14.16 37.105-29.038.003-15.59-11.827-22.61-26.886-22.61zM301.32 63.6c10.776 0 19.507 8.744 19.507 19.52 0 10.784-8.73 19.51-19.507 19.51-10.76 0-19.49-8.727-19.49-19.51 0-10.777 8.73-19.52 19.49-19.52zm-.9 105.832c-12.197 0-21.516-6.275-21.516-14.877 0-10.586 12.015-13.813 12.015-13.813h19.893c12.543 0 13.622 9.323 13.622 11.656 0 10.398-12.19 17.034-24.017 17.034zm-57.39-145.88c-4.124 0-7.473 3.346-7.473 7.638 0 4.133 3.348 7.482 7.474 7.482 4.306 0 7.646-3.35 7.646-7.482 0-4.293-3.34-7.637-7.644-7.637z"/></symbol></svg>