<?xml version="1.0" encoding="utf-8"?>
<!-- Generator: Adobe Illustrator 17.0.2, SVG Export Plug-In . SVG Version: 6.00 Build 0)  -->
<!DOCTYPE svg PUBLIC "-//W3C//DTD SVG 1.1//EN" "http://www.w3.org/Graphics/SVG/1.1/DTD/svg11.dtd">
<svg version="1.1" id="Layer_1" xmlns="http://www.w3.org/2000/svg" xmlns:xlink="http://www.w3.org/1999/xlink" x="0px" y="0px"
	 width="595.28px" height="841.89px" viewBox="0 0 595.28 841.89" enable-background="new 0 0 595.28 841.89" xml:space="preserve">
<path fill="none" d="M167.345,381.168c-6.164,0-8.346,5.746-8.346,14.685c0,8.301,1.802,14.898,8.346,14.898
	c6.164,0,8.346-5.853,8.346-14.898C175.69,387.553,173.793,381.168,167.345,381.168z"/>
<path fill="none" d="M383.743,383.296c-3.224,0-5.975,1.809-8.439,4.044v2.787l12.707,0.645v-1.304
	C388.011,385.531,386.873,383.296,383.743,383.296z"/>
<path fill="#010101" d="M81.255,364.992v2.129h-8.25v15.11h8.25v41.928h18.777v-41.928h11.001v-15.11h-11.001v-1.277
	c0-6.065,3.319-6.278,6.639-6.278c1.612,0,4.078,0.319,4.931,0.639v-14.366c-0.948-0.319-7.775-0.958-11.475-0.958
	C82.867,344.88,81.255,355.522,81.255,364.992z"/>
<path fill="#010101" d="M133.542,375.953h-0.095v-8.832H114.67v57.038h18.777v-34.691c2.465-2.234,6.069-5.214,11.38-5.214
	c1.327,0,3.982,0.319,4.741,0.426v-18.623h-0.189C140.085,366.057,135.723,372.016,133.542,375.953z"/>
<path fill="#010101" d="M176.345,366.057c-12.328,0-27.122,5.959-27.122,29.69c0,23.411,14.889,29.584,27.122,29.584
	s27.122-6.173,27.122-29.584C203.467,372.016,188.578,366.057,176.345,366.057z M176.345,410.751c-6.544,0-8.346-6.598-8.346-14.898
	c0-8.938,2.182-14.685,8.346-14.685c6.448,0,8.346,6.385,8.346,14.685C184.69,404.899,182.509,410.751,176.345,410.751z"/>
<path fill="#010101" d="M243.708,366.057c-9.389,0-14.699,5.959-16.88,9.897v-8.832h-18.777v57.038h18.777V387.34
	c2.466-2.235,5.216-4.044,8.439-4.044c3.13,0,4.268,2.234,4.268,6.172v34.691h18.777v-41.608
	C258.312,370.314,251.674,366.057,243.708,366.057z"/>
<path fill="#010101" d="M288.026,402.344v-20.112h12.992v-15.11h-12.992v-19.155H269.25v19.155h-8.251v15.11h8.251v24.795
	c0,11.067,1.612,17.878,18.872,17.878c3.698,0,10.526-0.639,11.475-0.958v-14.686c-0.854,0.319-3.319,0.639-4.932,0.639
	C289.354,409.9,288.026,408.41,288.026,402.344z"/>
<path fill="#010101" d="M320.871,383.403c0-2.554,2.087-3.618,5.216-3.618c4.078,0,9.483,2.128,14.984,5.746l6.923-11.599
	c-6.164-5.002-12.613-7.875-23.709-7.875c-11.475,0-20.769,6.491-20.769,19.261c0,0.401,0.013,0.79,0.031,1.173l25.07,1.27
	C323.517,387.017,320.871,386.058,320.871,383.403z"/>
<path fill="#010101" d="M334.38,403.728c5.501,0.852,7.872,1.809,7.872,4.789c0,2.66-2.846,3.724-6.069,3.724
	c-5.785,0-13.467-2.66-18.208-6.916l-6.923,11.811c5.595,4.576,13.371,8.194,25.226,8.194c11.759,0,23.329-5.215,23.329-20.325
	c0-3.925-0.994-6.906-2.613-9.194l-41.707-2.114C318.983,401.09,327.744,402.663,334.38,403.728z"/>
<polygon fill="#010101" points="398.011,424.159 416.788,424.159 416.788,398.841 398.011,397.889 "/>
<polygon fill="#010101" points="366.526,424.159 385.304,424.159 385.304,397.245 366.526,396.293 "/>
<path fill="#010101" d="M375.304,387.34c2.465-2.235,5.216-4.044,8.439-4.044c3.13,0,4.268,2.234,4.268,6.172v1.304l18.777,0.952
	v-9.173c0-12.237-6.639-16.494-14.605-16.494c-9.389,0-14.699,5.959-16.88,9.897v-30.541h-18.777v43.764l18.777,0.951V387.34z"/>
<polygon fill="#010101" points="427.027,424.159 445.805,424.159 445.805,400.312 427.027,399.36 "/>
<polygon fill="#010101" points="435.805,367.121 417.027,367.121 417.027,392.242 435.805,393.195 "/>
<rect x="417.027" y="345.412" fill="#010101" width="18.777" height="16.175"/>
<path fill="#010101" d="M470.133,382.232h11.001v-15.11h-11.001v-1.277c0-6.065,3.319-6.278,6.639-6.278
	c1.612,0,4.077,0.319,4.931,0.639v-14.366c-0.948-0.319-7.775-0.958-11.475-0.958c-17.26,0-18.872,10.642-18.872,20.112v2.129h-8.25
	v15.11h8.25v11.751l18.777,0.951V382.232z"/>
<polygon fill="#010101" points="461.355,424.159 480.133,424.159 480.133,402.051 461.355,401.1 "/>
<path fill="#010101" d="M502.037,407.027c0,11.067,1.612,17.878,18.872,17.878c3.698,0,10.526-0.639,11.475-0.958v-14.686
	c-0.854,0.319-3.319,0.639-4.932,0.639c-4.746,0-6.308-1.2-6.587-5.784l-18.828-0.954V407.027z"/>
<polygon fill="#010101" points="510.813,382.232 523.806,382.232 523.806,367.121 510.813,367.121 510.813,347.966 492.037,347.966 
	492.037,367.121 483.786,367.121 483.786,382.232 492.037,382.232 492.037,396.044 510.813,396.996 "/>
<path fill="#FFFFFF" d="M537.275,398.337l-26.462-1.341v5.348c0,0.645,0.02,1.227,0.052,1.772l26.05,1.32L537.275,398.337z"/>
<polygon fill="#FFFFFF" points="470.133,394.934 470.133,402.051 492.037,403.161 492.037,396.044 "/>
<polygon fill="#FFFFFF" points="435.805,393.195 435.805,400.312 451.355,401.1 451.355,393.983 "/>
<polygon fill="#FFFFFF" points="406.788,391.724 406.788,398.841 417.027,399.36 417.027,392.242 "/>
<polygon fill="#FFFFFF" points="375.304,390.127 375.304,397.245 388.011,397.889 388.011,390.772 "/>
<path fill="#FFFFFF" d="M328.618,387.761c0.01,0.002,0.02,0.003,0.029,0.005c6.182,0.914,14.259,2.268,18.346,8.045l9.533,0.482
	v-7.117L328.618,387.761z"/>
<path fill="#FFFFFF" d="M291.636,385.887l-0.361,7.1l14.012,0.71c-0.98-1.96-1.605-4.327-1.738-7.206L291.636,385.887z"/>
</svg>
